<mxfile host="app.diagrams.net" modified="2024-01-12T02:11:44.627Z" agent="Mozilla/5.0 (Windows NT 10.0; Win64; x64) AppleWebKit/537.36 (KHTML, like Gecko) Chrome/109.0.0.0 Safari/537.36 Edg/109.0.1518.61" etag="UpSCHrS7BVJqO1hB4RUx" version="22.1.18" type="github">
  <diagram name="Page-1" id="8378b5f6-a2b2-b727-a746-972ab9d02e00">
    <mxGraphModel dx="800" dy="440" grid="1" gridSize="10" guides="1" tooltips="1" connect="0" arrows="1" fold="1" page="1" pageScale="1.5" pageWidth="1169" pageHeight="827" background="none" math="0" shadow="0">
      <root>
        <mxCell id="0" />
        <mxCell id="1" parent="0" />
        <mxCell id="63" value="1" style="strokeColor=#DEEDFF;fillColor=#CCCCFF;" parent="1" vertex="1">
          <mxGeometry x="246.5" y="380" width="40" height="20" as="geometry" />
        </mxCell>
        <mxCell id="64" value="Análisis" style="align=left;strokeColor=#DEEDFF;fillColor=#CCCCFF;" parent="1" vertex="1">
          <mxGeometry x="286.5" y="380" width="320" height="20" as="geometry" />
        </mxCell>
        <mxCell id="65" value="2 Semana" style="strokeColor=#DEEDFF;fillColor=#CCCCFF;" parent="1" vertex="1">
          <mxGeometry x="606.5000000000018" y="380" width="80.00000000000028" height="20" as="geometry" />
        </mxCell>
        <mxCell id="69" value="2" style="strokeColor=#DEEDFF;fillColor=#CCCCFF;" parent="1" vertex="1">
          <mxGeometry x="246.50000000000026" y="399.9999999999999" width="40" height="20" as="geometry" />
        </mxCell>
        <mxCell id="70" value="Desarrollo" style="align=left;strokeColor=#DEEDFF;fillColor=#CCCCFF;" parent="1" vertex="1">
          <mxGeometry x="286.5000000000002" y="399.9999999999999" width="319.9999999999998" height="20" as="geometry" />
        </mxCell>
        <mxCell id="71" value="3 Semana" style="strokeColor=#DEEDFF;fillColor=#CCCCFF;" parent="1" vertex="1">
          <mxGeometry x="606.500000000002" y="399.99999999999983" width="80.00000000000028" height="20" as="geometry" />
        </mxCell>
        <mxCell id="74" value="3" style="strokeColor=#DEEDFF;fillColor=#CCCCFF;" parent="1" vertex="1">
          <mxGeometry x="246.50000000000028" y="419.9999999999998" width="40" height="20" as="geometry" />
        </mxCell>
        <mxCell id="75" value="Corrección de Indicencias" style="align=left;strokeColor=#DEEDFF;fillColor=#CCCCFF;" parent="1" vertex="1">
          <mxGeometry x="286.5000000000003" y="419.9999999999998" width="319.9999999999997" height="20.000000000000014" as="geometry" />
        </mxCell>
        <mxCell id="76" value="1 Semana" style="strokeColor=#DEEDFF;fillColor=#CCCCFF;" parent="1" vertex="1">
          <mxGeometry x="606.500000000002" y="419.9999999999997" width="80.00000000000028" height="20" as="geometry" />
        </mxCell>
        <mxCell id="79" value="4" style="strokeColor=#DEEDFF;fillColor=#CCCCFF;" parent="1" vertex="1">
          <mxGeometry x="246.5" y="440.00000000000017" width="40" height="20" as="geometry" />
        </mxCell>
        <mxCell id="80" value="Implementación y monitoreo" style="align=left;strokeColor=#DEEDFF;fillColor=#CCCCFF;" parent="1" vertex="1">
          <mxGeometry x="286.5" y="440.00000000000017" width="320" height="20" as="geometry" />
        </mxCell>
        <mxCell id="81" value="1 Semana" style="strokeColor=#DEEDFF;fillColor=#CCCCFF;" parent="1" vertex="1">
          <mxGeometry x="606.5000000000017" y="440.0000000000001" width="80.00000000000028" height="20" as="geometry" />
        </mxCell>
        <mxCell id="84" value="5" style="strokeColor=#82b366;fillColor=#d5e8d4;" parent="1" vertex="1">
          <mxGeometry x="246.49999999999991" y="460.00000000000017" width="40" height="20" as="geometry" />
        </mxCell>
        <mxCell id="85" value="Pruebas QA" style="align=left;strokeColor=#82b366;fillColor=#d5e8d4;" parent="1" vertex="1">
          <mxGeometry x="286.4999999999999" y="460.00000000000017" width="320.0000000000001" height="20" as="geometry" />
        </mxCell>
        <mxCell id="86" value="16 Días" style="strokeColor=#82b366;fillColor=#d5e8d4;" parent="1" vertex="1">
          <mxGeometry x="606.5000000000016" y="460.0000000000001" width="80.00000000000028" height="20" as="geometry" />
        </mxCell>
        <mxCell id="89" value="-" style="strokeColor=#DEEDFF;strokeWidth=2;" parent="1" vertex="1">
          <mxGeometry x="246.4999999999999" y="480.00000000000045" width="40" height="20" as="geometry" />
        </mxCell>
        <mxCell id="90" value="Planeación, Análisis y Diseño de pruebas" style="align=left;strokeColor=#DEEDFF;strokeWidth=2;" parent="1" vertex="1">
          <mxGeometry x="286.4999999999999" y="480.00000000000045" width="320.0000000000001" height="20" as="geometry" />
        </mxCell>
        <mxCell id="91" value="4 Días" style="strokeColor=#DEEDFF;strokeWidth=2;" parent="1" vertex="1">
          <mxGeometry x="606.5000000000016" y="480.00000000000034" width="80.00000000000028" height="20" as="geometry" />
        </mxCell>
        <mxCell id="94" value="-" style="strokeColor=#DEEDFF;strokeWidth=2;" parent="1" vertex="1">
          <mxGeometry x="246.50000000000063" y="500.0000000000007" width="40" height="20" as="geometry" />
        </mxCell>
        <mxCell id="95" value="Peer Review" style="align=left;strokeColor=#DEEDFF;strokeWidth=2;" parent="1" vertex="1">
          <mxGeometry x="286.5000000000006" y="500.0000000000007" width="319.9999999999994" height="20" as="geometry" />
        </mxCell>
        <mxCell id="96" value="2 Días" style="strokeColor=#DEEDFF;strokeWidth=2;" parent="1" vertex="1">
          <mxGeometry x="606.5000000000024" y="500.0000000000007" width="80.00000000000028" height="20" as="geometry" />
        </mxCell>
        <mxCell id="99" value="-" style="strokeColor=#DEEDFF;fillColor=#FFFFFF;strokeWidth=2;" parent="1" vertex="1">
          <mxGeometry x="246.50000000000063" y="520.0000000000006" width="40" height="20" as="geometry" />
        </mxCell>
        <mxCell id="100" value="Implementación" style="align=left;strokeColor=#DEEDFF;fillColor=#FFFFFF;strokeWidth=2;" parent="1" vertex="1">
          <mxGeometry x="286.5000000000006" y="520.0000000000006" width="319.9999999999994" height="20" as="geometry" />
        </mxCell>
        <mxCell id="101" value="1 Día" style="strokeColor=#DEEDFF;fillColor=#FFFFFF;strokeWidth=2;" parent="1" vertex="1">
          <mxGeometry x="606.5000000000024" y="520.0000000000006" width="80.00000000000028" height="20" as="geometry" />
        </mxCell>
        <mxCell id="104" value="-" style="strokeColor=#DEEDFF;fillColor=#FFFFFF;strokeWidth=2;" parent="1" vertex="1">
          <mxGeometry x="246.50000000000037" y="540.000000000001" width="40" height="20" as="geometry" />
        </mxCell>
        <mxCell id="105" value="Ejecución - Pruebas Funcionales (QA)" style="align=left;strokeColor=#DEEDFF;fillColor=#FFFFFF;strokeWidth=2;" parent="1" vertex="1">
          <mxGeometry x="286.50000000000034" y="540.000000000001" width="319.99999999999966" height="20.00000000000003" as="geometry" />
        </mxCell>
        <mxCell id="106" value="5.5 Días" style="strokeColor=#DEEDFF;fillColor=#FFFFFF;strokeWidth=2;" parent="1" vertex="1">
          <mxGeometry x="606.500000000002" y="540.0000000000009" width="80.00000000000028" height="20" as="geometry" />
        </mxCell>
        <mxCell id="194" value="" style="strokeColor=#DEEDFF" parent="1" vertex="1">
          <mxGeometry x="686.5" y="380" width="73.5" height="260" as="geometry" />
        </mxCell>
        <mxCell id="2" value="Actividad" style="fillColor=#23445D;strokeColor=#FFFFFF;strokeWidth=2;fontColor=#FFFFFF;fontStyle=1" parent="1" vertex="1">
          <mxGeometry x="286.5" y="340" width="320" height="40" as="geometry" />
        </mxCell>
        <mxCell id="3" value="" style="fillColor=#23445D;strokeColor=#FFFFFF;strokeWidth=2;fontColor=#FFFFFF;fontStyle=1" parent="1" vertex="1">
          <mxGeometry x="246.5" y="340" width="40" height="40" as="geometry" />
        </mxCell>
        <mxCell id="4" value="Semana 1" style="fillColor=#23445D;strokeColor=#FFFFFF;strokeWidth=2;fontColor=#FFFFFF;fontStyle=1" parent="1" vertex="1">
          <mxGeometry x="686.5" y="340" width="73.5" height="40" as="geometry" />
        </mxCell>
        <mxCell id="12" value="Duración" style="fillColor=#23445D;strokeColor=#FFFFFF;strokeWidth=2;fontColor=#FFFFFF;fontStyle=1" parent="1" vertex="1">
          <mxGeometry x="606.5000000000018" y="340.00000000000006" width="80.00000000000006" height="40.00000000000001" as="geometry" />
        </mxCell>
        <mxCell id="0TEdr6XwHTBYmzNy-4LU-400" value="-" style="strokeColor=#DEEDFF;strokeWidth=2;" parent="1" vertex="1">
          <mxGeometry x="246.50000000000063" y="560.0000000000007" width="40" height="20" as="geometry" />
        </mxCell>
        <mxCell id="0TEdr6XwHTBYmzNy-4LU-401" value="Ejecución - Pruebas UAT" style="align=left;strokeColor=#DEEDFF;strokeWidth=2;" parent="1" vertex="1">
          <mxGeometry x="286.5000000000006" y="560.0000000000007" width="319.9999999999994" height="20" as="geometry" />
        </mxCell>
        <mxCell id="0TEdr6XwHTBYmzNy-4LU-402" value="3 Días" style="strokeColor=#DEEDFF;strokeWidth=2;" parent="1" vertex="1">
          <mxGeometry x="606.5000000000024" y="560.0000000000007" width="80.00000000000028" height="20" as="geometry" />
        </mxCell>
        <mxCell id="0TEdr6XwHTBYmzNy-4LU-405" value="-" style="strokeColor=#DEEDFF;fillColor=#FFFFFF;strokeWidth=2;" parent="1" vertex="1">
          <mxGeometry x="246.50000000000063" y="580.0000000000006" width="40" height="20" as="geometry" />
        </mxCell>
        <mxCell id="0TEdr6XwHTBYmzNy-4LU-406" value="Ejecución - Pruebas Pre-Producción" style="align=left;strokeColor=#DEEDFF;fillColor=#FFFFFF;strokeWidth=2;" parent="1" vertex="1">
          <mxGeometry x="286.5000000000006" y="580.0000000000006" width="319.9999999999994" height="20" as="geometry" />
        </mxCell>
        <mxCell id="0TEdr6XwHTBYmzNy-4LU-407" value="-" style="strokeColor=#DEEDFF;fillColor=#FFFFFF;strokeWidth=2;" parent="1" vertex="1">
          <mxGeometry x="606.5000000000024" y="580.0000000000006" width="80.00000000000028" height="20" as="geometry" />
        </mxCell>
        <mxCell id="0TEdr6XwHTBYmzNy-4LU-410" value="-" style="strokeColor=#DEEDFF;fillColor=#FFFFFF;strokeWidth=2;" parent="1" vertex="1">
          <mxGeometry x="246.50000000000037" y="600.000000000001" width="40" height="20" as="geometry" />
        </mxCell>
        <mxCell id="0TEdr6XwHTBYmzNy-4LU-411" value="Vo.Bo. QA - Liberación" style="align=left;strokeColor=#DEEDFF;fillColor=#FFFFFF;strokeWidth=2;" parent="1" vertex="1">
          <mxGeometry x="286.50000000000034" y="600.000000000001" width="319.99999999999966" height="20.00000000000003" as="geometry" />
        </mxCell>
        <mxCell id="0TEdr6XwHTBYmzNy-4LU-412" value="-" style="strokeColor=#DEEDFF;fillColor=#FFFFFF;strokeWidth=2;" parent="1" vertex="1">
          <mxGeometry x="606.500000000002" y="600.0000000000009" width="80.00000000000028" height="20" as="geometry" />
        </mxCell>
        <mxCell id="0TEdr6XwHTBYmzNy-4LU-415" value="-" style="strokeColor=#DEEDFF;fillColor=#FFFFFF;strokeWidth=2;" parent="1" vertex="1">
          <mxGeometry x="246.50000000000037" y="620.000000000001" width="40" height="20" as="geometry" />
        </mxCell>
        <mxCell id="0TEdr6XwHTBYmzNy-4LU-416" value="Monitoreo y Control" style="align=left;strokeColor=#DEEDFF;fillColor=#FFFFFF;strokeWidth=2;" parent="1" vertex="1">
          <mxGeometry x="286.50000000000034" y="620.000000000001" width="319.99999999999966" height="20.00000000000003" as="geometry" />
        </mxCell>
        <mxCell id="0TEdr6XwHTBYmzNy-4LU-417" value="-" style="strokeColor=#DEEDFF;fillColor=#FFFFFF;strokeWidth=2;" parent="1" vertex="1">
          <mxGeometry x="606.500000000002" y="620.0000000000009" width="80.00000000000028" height="20" as="geometry" />
        </mxCell>
        <mxCell id="0TEdr6XwHTBYmzNy-4LU-431" value="ROAD MAP Catálogo de autos" style="fillColor=#23445D;strokeColor=#FFFFFF;strokeWidth=2;fontColor=#FFFFFF;fontStyle=1" parent="1" vertex="1">
          <mxGeometry x="286.5" y="300" width="320" height="40" as="geometry" />
        </mxCell>
        <mxCell id="rK6uFLKXqWD6iHWjql1R-243" value="Semana 2" style="fillColor=#23445D;strokeColor=#FFFFFF;strokeWidth=2;fontColor=#FFFFFF;fontStyle=1" parent="1" vertex="1">
          <mxGeometry x="759.75" y="340" width="73.5" height="40" as="geometry" />
        </mxCell>
        <mxCell id="rK6uFLKXqWD6iHWjql1R-244" value="Semana 3" style="fillColor=#23445D;strokeColor=#FFFFFF;strokeWidth=2;fontColor=#FFFFFF;fontStyle=1" parent="1" vertex="1">
          <mxGeometry x="833.25" y="340" width="73.5" height="40" as="geometry" />
        </mxCell>
        <mxCell id="rK6uFLKXqWD6iHWjql1R-245" value="Semana 4" style="fillColor=#23445D;strokeColor=#FFFFFF;strokeWidth=2;fontColor=#FFFFFF;fontStyle=1" parent="1" vertex="1">
          <mxGeometry x="906.75" y="340" width="73.5" height="40" as="geometry" />
        </mxCell>
        <mxCell id="rK6uFLKXqWD6iHWjql1R-246" value="Semana 5" style="fillColor=#23445D;strokeColor=#FFFFFF;strokeWidth=2;fontColor=#FFFFFF;fontStyle=1" parent="1" vertex="1">
          <mxGeometry x="980" y="340" width="73.5" height="40" as="geometry" />
        </mxCell>
        <mxCell id="rK6uFLKXqWD6iHWjql1R-247" value="Semana 6" style="fillColor=#23445D;strokeColor=#FFFFFF;strokeWidth=2;fontColor=#FFFFFF;fontStyle=1" parent="1" vertex="1">
          <mxGeometry x="1053.5" y="340" width="73.5" height="40" as="geometry" />
        </mxCell>
        <mxCell id="rK6uFLKXqWD6iHWjql1R-248" value="Semana 7" style="fillColor=#23445D;strokeColor=#FFFFFF;strokeWidth=2;fontColor=#FFFFFF;fontStyle=1" parent="1" vertex="1">
          <mxGeometry x="1127" y="340" width="73.5" height="40" as="geometry" />
        </mxCell>
        <mxCell id="rK6uFLKXqWD6iHWjql1R-249" value="Semana 8" style="fillColor=#23445D;strokeColor=#FFFFFF;strokeWidth=2;fontColor=#FFFFFF;fontStyle=1" parent="1" vertex="1">
          <mxGeometry x="1200.5" y="340" width="73.5" height="40" as="geometry" />
        </mxCell>
        <mxCell id="rK6uFLKXqWD6iHWjql1R-250" value="Semana 9" style="fillColor=#23445D;strokeColor=#FFFFFF;strokeWidth=2;fontColor=#FFFFFF;fontStyle=1" parent="1" vertex="1">
          <mxGeometry x="1274" y="340" width="73.5" height="40" as="geometry" />
        </mxCell>
        <mxCell id="rK6uFLKXqWD6iHWjql1R-251" value="Semana 10" style="fillColor=#23445D;strokeColor=#FFFFFF;strokeWidth=2;fontColor=#FFFFFF;fontStyle=1" parent="1" vertex="1">
          <mxGeometry x="1347.5" y="340" width="73.5" height="40" as="geometry" />
        </mxCell>
        <mxCell id="rK6uFLKXqWD6iHWjql1R-252" value="Semana 11" style="fillColor=#23445D;strokeColor=#FFFFFF;strokeWidth=2;fontColor=#FFFFFF;fontStyle=1" parent="1" vertex="1">
          <mxGeometry x="1421" y="340" width="73.5" height="40" as="geometry" />
        </mxCell>
        <mxCell id="rK6uFLKXqWD6iHWjql1R-254" value="" style="strokeColor=#DEEDFF" parent="1" vertex="1">
          <mxGeometry x="760" y="380" width="73.5" height="260" as="geometry" />
        </mxCell>
        <mxCell id="rK6uFLKXqWD6iHWjql1R-255" value="" style="strokeColor=#DEEDFF" parent="1" vertex="1">
          <mxGeometry x="833.25" y="380" width="73.5" height="260" as="geometry" />
        </mxCell>
        <mxCell id="rK6uFLKXqWD6iHWjql1R-256" value="" style="strokeColor=#DEEDFF" parent="1" vertex="1">
          <mxGeometry x="906.75" y="380" width="73.5" height="260" as="geometry" />
        </mxCell>
        <mxCell id="rK6uFLKXqWD6iHWjql1R-257" value="" style="strokeColor=#DEEDFF" parent="1" vertex="1">
          <mxGeometry x="980.25" y="380" width="73.5" height="260" as="geometry" />
        </mxCell>
        <mxCell id="rK6uFLKXqWD6iHWjql1R-258" value="" style="strokeColor=#DEEDFF" parent="1" vertex="1">
          <mxGeometry x="1053.75" y="380" width="73.5" height="260" as="geometry" />
        </mxCell>
        <mxCell id="rK6uFLKXqWD6iHWjql1R-259" value="" style="strokeColor=#DEEDFF" parent="1" vertex="1">
          <mxGeometry x="1127.25" y="380" width="73.5" height="260" as="geometry" />
        </mxCell>
        <mxCell id="rK6uFLKXqWD6iHWjql1R-260" value="" style="strokeColor=#DEEDFF" parent="1" vertex="1">
          <mxGeometry x="1200.5" y="380" width="73.5" height="260" as="geometry" />
        </mxCell>
        <mxCell id="rK6uFLKXqWD6iHWjql1R-261" value="" style="strokeColor=#DEEDFF" parent="1" vertex="1">
          <mxGeometry x="1274" y="380" width="73.5" height="260" as="geometry" />
        </mxCell>
        <mxCell id="rK6uFLKXqWD6iHWjql1R-262" value="" style="strokeColor=#DEEDFF" parent="1" vertex="1">
          <mxGeometry x="1347.5" y="380" width="73.5" height="260" as="geometry" />
        </mxCell>
        <mxCell id="rK6uFLKXqWD6iHWjql1R-263" value="" style="strokeColor=#DEEDFF" parent="1" vertex="1">
          <mxGeometry x="1421" y="380" width="73.5" height="260" as="geometry" />
        </mxCell>
        <mxCell id="242" value="" style="shape=mxgraph.flowchart.process;fillColor=#AE4132;strokeColor=#000000;strokeWidth=2;opacity=50" parent="1" vertex="1">
          <mxGeometry x="686.5" y="380" width="143.5" height="20" as="geometry" />
        </mxCell>
        <mxCell id="rK6uFLKXqWD6iHWjql1R-253" value="" style="shape=mxgraph.flowchart.process;fillColor=#AE4132;strokeColor=#000000;strokeWidth=2;opacity=50" parent="1" vertex="1">
          <mxGeometry x="833.5" y="400" width="216.5" height="20" as="geometry" />
        </mxCell>
        <mxCell id="rK6uFLKXqWD6iHWjql1R-264" value="" style="shape=mxgraph.flowchart.process;fillColor=#AE4132;strokeColor=#000000;strokeWidth=2;opacity=50" parent="1" vertex="1">
          <mxGeometry x="1053.5" y="420" width="76.5" height="20" as="geometry" />
        </mxCell>
        <mxCell id="rK6uFLKXqWD6iHWjql1R-265" value="" style="shape=mxgraph.flowchart.process;fillColor=#AE4132;strokeColor=#000000;strokeWidth=2;opacity=50" parent="1" vertex="1">
          <mxGeometry x="1130" y="440" width="70" height="20" as="geometry" />
        </mxCell>
        <mxCell id="NE0bAx0aJU_km6K3DfQn-242" value="" style="shape=mxgraph.flowchart.process;fillColor=#cdeb8b;strokeColor=#36393d;strokeWidth=2;opacity=50;" vertex="1" parent="1">
          <mxGeometry x="1200" y="460" width="240" height="20" as="geometry" />
        </mxCell>
        <mxCell id="NE0bAx0aJU_km6K3DfQn-243" value="" style="shape=mxgraph.flowchart.process;fillColor=#E6FFCC;strokeColor=#36393d;strokeWidth=2;opacity=50;" vertex="1" parent="1">
          <mxGeometry x="1200.75" y="480" width="49.25" height="20" as="geometry" />
        </mxCell>
        <mxCell id="NE0bAx0aJU_km6K3DfQn-244" value="" style="shape=mxgraph.flowchart.process;fillColor=#E6FFCC;strokeColor=#36393d;strokeWidth=2;opacity=50;" vertex="1" parent="1">
          <mxGeometry x="1250" y="500" width="49.25" height="20" as="geometry" />
        </mxCell>
        <mxCell id="NE0bAx0aJU_km6K3DfQn-245" value="" style="shape=mxgraph.flowchart.process;fillColor=#E6FFCC;strokeColor=#36393d;strokeWidth=2;opacity=50;" vertex="1" parent="1">
          <mxGeometry x="1298.25" y="520" width="11.75" height="20" as="geometry" />
        </mxCell>
        <mxCell id="NE0bAx0aJU_km6K3DfQn-246" value="" style="shape=mxgraph.flowchart.process;fillColor=#E6FFCC;strokeColor=#36393d;strokeWidth=2;opacity=50;" vertex="1" parent="1">
          <mxGeometry x="1310" y="540" width="90" height="20" as="geometry" />
        </mxCell>
        <mxCell id="NE0bAx0aJU_km6K3DfQn-247" value="" style="shape=mxgraph.flowchart.process;fillColor=#E6FFCC;strokeColor=#36393d;strokeWidth=2;opacity=50;" vertex="1" parent="1">
          <mxGeometry x="1400" y="560" width="40" height="20" as="geometry" />
        </mxCell>
      </root>
    </mxGraphModel>
  </diagram>
</mxfile>
